name C:\Users\u0101727\Documents\MyRepositories\paper-ad\trackingsimulations_3d\Results\TrackSim\IK_c3.mot
datacolumns 32
datarows 17
range 3.45000000 3.70600000
endheader
time	pelvis_tilt	pelvis_list	pelvis_rotation	pelvis_tx	pelvis_ty	pelvis_tz	hip_flexion_l	hip_adduction_l	hip_rotation_l	hip_flexion_r	hip_adduction_r	hip_rotation_r	knee_angle_l	knee_angle_r	ankle_angle_l	ankle_angle_r	subtalar_angle_l	subtalar_angle_r	lumbar_extension	lumbar_bending	lumbar_rotation	arm_flex_l	arm_add_l	arm_rot_l	arm_flex_r	arm_add_r	arm_rot_r	elbow_flex_l	elbow_flex_r	pro_sup_l	pro_sup_r	
          3.45000000	         -2.16677602	          4.38514193	          4.40552819	         -0.50746863	          0.94264444	         -0.23004518	         15.04368069	          9.17909194	          3.45483493	         13.63985605	         -1.82126730	         -2.18176276	        -22.13599254	        -65.09586727	          5.23129273	        -12.88981192	          5.74445565	        -13.57224538	         -4.52023691	         -4.06421318	         -3.34288495	         -1.83130624	        -15.69874126	         17.87211990	         -4.80789401	        -16.91055702	         12.13969661	         21.28597337	         23.55062744	         86.51662706	         86.51662706	
          3.46600000	         -2.19533903	          4.17116382	          4.34743121	         -0.48916745	          0.94553411	         -0.23060774	         13.64586039	          8.93327737	          3.80157543	         16.82142611	         -1.90327409	         -2.03595624	        -21.98711239	        -66.35354028	          6.87920425	        -10.74908177	          5.94495201	        -12.84725067	         -4.69724111	         -3.91697817	         -3.83077345	         -1.63329084	        -15.90522307	         17.29317560	         -5.00396375	        -16.82628859	         12.39759583	         22.63030907	         23.04732567	         86.51662706	         86.51662706	
          3.48200000	         -2.17299030	          3.88748516	          4.28347373	         -0.47077749	          0.94821301	         -0.23110889	         12.13360278	          8.59611110	          4.12616927	         19.72739093	         -1.90519382	         -1.95328825	        -21.64463316	        -66.63304066	          8.04928863	         -8.84379306	          6.01519006	        -11.87549707	         -4.88905708	         -3.66452331	         -4.29377043	         -1.42423439	        -16.08847560	         16.78477172	         -5.27404508	        -16.76348628	         12.44679633	         23.94362315	         22.62266570	         86.51662706	         86.51662706	
          3.49800000	         -2.11605591	          3.52049704	          4.32470729	         -0.45227858	          0.95054563	         -0.23172039	         10.56174909	          8.19989827	          4.56312369	         22.30139757	         -1.83637540	         -2.03866477	        -21.19079067	        -65.92464723	          8.77157406	         -7.17117861	          5.85561510	        -10.92731100	         -5.08556849	         -3.28598674	         -4.82658208	         -1.19952857	        -16.25350241	         16.38367683	         -5.63903823	        -16.72122420	         12.20034557	         25.21724921	         22.32613215	         86.51662706	         86.51662706	
          3.51400000	         -2.03699786	          3.10707520	          4.43870569	         -0.43364526	          0.95241620	         -0.23237331	          8.94764509	          7.76009809	          5.05826892	         24.53172916	         -1.74086673	         -2.26063400	        -20.66297385	        -64.28499665	          9.22662160	         -5.58279008	          5.56857289	        -10.19773000	         -5.27715134	         -2.83292982	         -5.39050478	         -0.96555437	        -16.42046340	         16.07988097	         -6.07350178	        -16.68327370	         11.70033441	         26.45964957	         22.11820333	         86.51662706	         86.51662706	
          3.53000000	         -1.94106286	          2.68767570	          4.58063487	         -0.41485731	          0.95373991	         -0.23296626	          7.29490308	          7.28663197	          5.51951467	         26.41208682	         -1.64691144	         -2.56943408	        -20.08837132	        -61.77902296	          9.59964277	         -3.95824075	          5.30236459	         -9.92003881	         -5.46347434	         -2.36345004	         -5.94247503	         -0.72891462	        -16.60600848	         15.84779102	         -6.53339037	        -16.63241084	         11.04585095	         27.66842191	         21.93087825	         86.51662706	         86.51662706	
          3.54600000	         -1.82768873	          2.30177934	          4.72369867	         -0.39588143	          0.95447435	         -0.23344661	          5.58746707	          6.80014419	          5.88380896	         27.92658882	         -1.58380076	         -2.92132634	        -19.46046340	        -58.47479456	          9.98400180	         -2.37248701	          5.16178009	        -10.06090979	         -5.65005224	         -1.92880967	         -6.46314007	         -0.49509045	        -16.81531466	         15.66945077	         -6.98123894	        -16.55779935	         10.33270158	         28.82097541	         21.71080925	         86.51662706	         86.51662706	
          3.56200000	         -1.69768229	          1.97935401	          4.86663876	         -0.37668980	          0.95461152	         -0.23382314	          3.81317030	          6.32875462	          6.14393795	         29.07042691	         -1.58307141	         -3.29668685	        -18.76801932	        -54.47876620	         10.39628763	         -1.20731381	          5.17940533	        -10.27429445	         -5.84104010	         -1.56336777	         -6.95800781	         -0.26516850	        -17.04237448	         15.53933068	         -7.39243575	        -16.45648201	          9.63407813	         29.88133217	         21.42926774	         86.51662706	         86.51662706	
          3.57800000	         -1.55803998	          1.73337162	          5.02040926	         -0.35727542	          0.95416809	         -0.23413123	          1.98085864	          5.89501405	          6.33370452	         29.86230832	         -1.66494443	         -3.72494256	        -18.01865726	        -49.90100579	         10.81814228	         -0.87172616	          5.33076869	        -10.38808826	         -6.03362058	         -1.27956715	         -7.43781689	         -0.03376056	        -17.27303184	         15.46114808	         -7.75236957	        -16.33159225	          9.00438881	         30.81037547	         21.07247942	         86.51662706	         86.51662706	
          3.59400000	         -1.41857170	          1.57196976	          5.18204548	         -0.33764355	          0.95317618	         -0.23438619	          0.11419613	          5.52178552	          6.50169832	         30.34342403	         -1.83064373	         -4.21683969	        -17.23807075	        -44.86367122	         11.21559754	         -1.22439398	          5.55059006	        -10.07138323	         -6.22133413	         -1.08506623	         -7.89192538	          0.20988799	        -17.49000571	         15.44193268	         -8.05242741	        -16.18845717	          8.48565295	         31.57158348	         20.63080181	         86.51662706	         86.51662706	
          3.61000000	         -1.28927869	          1.49088633	          5.34300557	         -0.31779302	          0.95167848	         -0.23457620	         -1.75385016	          5.21724210	          6.69487977	         30.56225832	         -2.05272016	         -4.78355326	        -16.46791277	        -39.49390262	         11.56242139	         -1.57214120	          5.77377377	         -9.30099775	         -6.39422933	         -0.97584974	         -8.29681238	          0.47764636	        -17.67611150	         15.49028205	         -8.29048049	        -16.03225625	          8.10911331	         32.13306060	         20.09381093	         86.51662706	         86.51662706	
          3.62600000	         -1.17718962	          1.48007370	          5.51601014	         -0.29771426	          0.94974517	         -0.23471478	         -3.58725018	          4.98087069	          6.97287116	         30.55809741	         -2.31991567	         -5.47653458	        -15.76040871	        -33.88527798	         11.83287298	         -1.34637618	          5.93859645	         -8.02515646	         -6.54311317	         -0.93992060	         -8.64592679	          0.77963762	        -17.81636306	         15.61750695	         -8.47096258	        -15.86683905	          7.89748092	         32.46979190	         19.45196326	         86.51662706	         86.51662706	
          3.64200000	         -1.08527270	          1.52317287	          5.71646431	         -0.27738732	          0.94746801	         -0.23480905	         -5.35439686	          4.79553509	          7.33689604	         30.37945368	         -2.62509082	         -6.35496765	        -15.16485880	        -28.18356981	         12.01228594	         -0.75917174	          6.03695770	         -6.18281509	         -6.66100634	         -0.95785842	         -8.94412510	          1.11521746	        -17.90229243	         15.83372687	         -8.59885581	        -15.69469683	          7.86477547	         32.56919529	         18.70373385	         86.51662706	         86.51662706	
          3.65800000	         -1.00706551	          1.59698790	          5.93372306	         -0.25675879	          0.94494035	         -0.23480450	         -7.03962489	          4.62640474	          7.70616768	         30.08708763	         -2.92581949	         -7.42227272	        -14.72084773	        -22.67812470	         12.10491408	         -0.13932014	          6.12988307	         -3.95923231	         -6.74700970	         -1.00606317	         -9.18288780	          1.46699363	        -17.93388672	         16.13896655	         -8.68018829	        -15.51722476	          8.01546465	         32.43650630	         17.85940163	         86.51662706	         86.51662706	
          3.67400000	         -0.93051577	          1.68111501	          6.14531232	         -0.23576675	          0.94224985	         -0.23462815	         -8.62980289	          4.44516260	          8.00564322	         29.77030087	         -3.17419251	         -8.61549914	        -14.47463323	        -17.84392745	         12.11538099	          0.38531498	          6.28096182	         -1.63762399	         -6.80624235	         -1.06449340	         -9.35149729	          1.80607839	        -17.91728498	         16.51998596	         -8.72066990	        -15.33666168	          8.34616823	         32.09685695	         16.94266174	         86.51662706	         86.51662706	
          3.69000000	         -0.84729696	          1.75394145	          6.35854556	         -0.21436469	          0.93948837	         -0.23426877	        -10.09535664	          4.22148416	          8.16087139	         29.50466098	         -3.34463792	         -9.84889381	        -14.48978221	        -14.11078283	         12.04752620	          0.94178273	          6.57271283	          0.47244781	         -6.84055752	         -1.10633890	         -9.47655099	          2.09540109	        -17.85939577	         16.95377107	         -8.72638390	        -15.15887286	          8.84098023	         31.59023980	         15.99257136	         86.51662706	         86.51662706	
          3.70600000	         -0.74912810	          1.81313203	          6.61574227	         -0.19248922	          0.93675237	         -0.23379823	        -11.41239127	          3.94557097	          8.17068290	         29.29365286	         -3.44995581	        -10.99859609	        -14.82074025	        -11.64679106	         11.87782258	          1.50517365	          7.03532321	          1.89985780	         -6.84921743	         -1.12023905	         -9.62178209	          2.29208662	        -17.76599971	         17.40681331	         -8.71300188	        -14.99106531	          9.47161847	         30.96075168	         15.06006629	         86.51662706	         86.51662706	
